<svg width="120" height="17" viewBox="0 0 120 17" fill="none" xmlns="http://www.w3.org/2000/svg">
<path d="M4.25891 17H0.904906V0.385998H4.25891V17ZM12.1109 17H1.90591V14.153H12.1109V17ZM11.8119 9.941H2.85491V7.172H11.8119V9.941ZM12.0069 3.207H1.89291V0.385998H12.0069V3.207ZM21.3018 0.385998V17H17.8698V0.385998H21.3018ZM19.7938 17V14.127H28.4908V17H19.7938ZM37.1476 17H33.7936V0.385998H37.1476V17ZM44.9996 17H34.7946V14.153H44.9996V17ZM44.7006 9.941H35.7436V7.172H44.7006V9.941ZM44.8956 3.207H34.7816V0.385998H44.8956V3.207ZM53.8524 17H50.5504L51.0964 0.385998H56.0104L59.1304 10.955H59.2994L62.4064 0.385998H67.3074L67.8664 17H64.5644L64.4084 11.02L64.2654 4.117H64.0574L60.7944 15.063H57.6224L54.3464 4.117H54.1384L53.9954 11.033L53.8524 17ZM77.0634 17H73.7614L74.3074 0.385998H79.2214L82.3414 10.955H82.5104L85.6174 0.385998H90.5184L91.0774 17H87.7754L87.6194 11.02L87.4764 4.117H87.2684L84.0054 15.063H80.8334L77.5574 4.117H77.3494L77.2064 11.033L77.0634 17ZM100.612 0.385998V17H97.1933V0.385998H100.612ZM119.895 17H116.385L116.008 13.763C115.948 13.1823 115.826 12.697 115.644 12.307C115.462 11.917 115.189 11.6223 114.825 11.423C114.461 11.215 113.959 11.111 113.317 11.111L109.3 11.098V8.472L113.525 8.459C114.47 8.459 115.146 8.24233 115.553 7.809C115.969 7.367 116.177 6.73867 116.177 5.924V5.612C116.177 4.806 115.969 4.195 115.553 3.779C115.146 3.35433 114.461 3.142 113.499 3.142H109.261V0.385998H113.98C115.93 0.385998 117.352 0.780332 118.244 1.569C119.146 2.35767 119.596 3.48 119.596 4.936V5.3C119.596 6.392 119.332 7.25867 118.803 7.9C118.275 8.54133 117.434 8.92267 116.281 9.044V9.512L115.332 9.044C116.32 9.11333 117.083 9.32133 117.62 9.668C118.166 10.0147 118.565 10.4957 118.816 11.111C119.068 11.7177 119.258 12.4717 119.388 13.373L119.895 17ZM110.288 17H106.934V0.385998H110.262V9.408L110.288 10.669V17Z" fill="white"/>
</svg>
