<svg width="229" height="18" viewBox="0 0 229 18" fill="none" xmlns="http://www.w3.org/2000/svg">
<path d="M3.55262 17H0.250617L0.796617 0.385998H5.71062L8.83062 10.955H8.99962L12.1066 0.385998H17.0076L17.5666 17H14.2646L14.1086 11.02L13.9656 4.117H13.7576L10.4946 15.063H7.32262L4.04662 4.117H3.83862L3.69562 11.033L3.55262 17ZM27.0236 17H23.6696V0.385998H27.0236V17ZM34.8756 17H24.6706V14.153H34.8756V17ZM34.5766 9.941H25.6196V7.172H34.5766V9.941ZM34.7716 3.207H24.6576V0.385998H34.7716V3.207ZM47.837 17H44.418V1.023H47.837V17ZM52.543 3.233H39.686V0.385998H52.543V3.233ZM62.8829 17.338C62.1116 17.338 61.3879 17.2817 60.7119 17.169C60.0446 17.0563 59.4379 16.9177 58.8919 16.753C58.3546 16.5797 57.8909 16.4063 57.5009 16.233L57.2019 13.009C57.8779 13.3643 58.6796 13.685 59.6069 13.971C60.5343 14.2483 61.5223 14.387 62.5709 14.387C63.6803 14.387 64.4819 14.2267 64.9759 13.906C65.4699 13.5853 65.7169 13.0913 65.7169 12.424V12.281C65.7169 11.8477 65.6086 11.4923 65.3919 11.215C65.1839 10.929 64.8329 10.6777 64.3389 10.461C63.8449 10.2443 63.1733 10.0233 62.3239 9.798C61.1279 9.46867 60.1443 9.096 59.3729 8.68C58.6103 8.25533 58.0469 7.731 57.6829 7.107C57.3189 6.47433 57.1369 5.68133 57.1369 4.728V4.572C57.1369 3.116 57.6266 1.998 58.6059 1.218C59.5939 0.437999 61.0499 0.0479997 62.9739 0.0479997C64.1699 0.0479997 65.1969 0.156333 66.0549 0.372999C66.9129 0.589666 67.6323 0.840999 68.2129 1.127L68.5119 4.13C67.8619 3.78333 67.1166 3.49733 66.2759 3.272C65.4439 3.038 64.5339 2.921 63.5459 2.921C62.8093 2.921 62.2243 2.99033 61.7909 3.129C61.3663 3.26767 61.0586 3.47133 60.8679 3.74C60.6859 4.00867 60.5949 4.33367 60.5949 4.715V4.754C60.5949 5.144 60.6903 5.482 60.8809 5.768C61.0803 6.054 61.4313 6.31833 61.9339 6.561C62.4366 6.795 63.1516 7.03767 64.0789 7.289C65.2576 7.61833 66.2196 7.97367 66.9649 8.355C67.7189 8.73633 68.2779 9.23033 68.6419 9.837C69.0059 10.4437 69.1879 11.2453 69.1879 12.242V12.476C69.1879 14.0793 68.6636 15.2927 67.6149 16.116C66.5749 16.9307 64.9976 17.338 62.8829 17.338ZM81.1799 17.377C78.8919 17.377 77.2062 16.818 76.1229 15.7C75.0395 14.5733 74.4979 12.931 74.4979 10.773V0.385998H77.9169V10.851C77.9169 12.0383 78.1725 12.944 78.6839 13.568C79.2039 14.1833 80.0359 14.491 81.1799 14.491C82.3152 14.491 83.1385 14.1833 83.6499 13.568C84.1699 12.944 84.4299 12.0383 84.4299 10.851V0.385998H87.8489V10.773C87.8489 12.931 87.3072 14.5733 86.2239 15.7C85.1405 16.818 83.4592 17.377 81.1799 17.377ZM107.537 17H103.559L98.4626 9.642H97.1236V7.367H98.4626L103.494 0.385998H107.355L101.232 8.719L101.219 7.939L107.537 17ZM97.4356 17H94.0426V0.385998H97.4356V17ZM115.836 0.385998V17H112.417V0.385998H115.836ZM136.434 17.338C135.662 17.338 134.939 17.2817 134.263 17.169C133.595 17.0563 132.989 16.9177 132.443 16.753C131.905 16.5797 131.442 16.4063 131.052 16.233L130.753 13.009C131.429 13.3643 132.23 13.685 133.158 13.971C134.085 14.2483 135.073 14.387 136.122 14.387C137.231 14.387 138.033 14.2267 138.527 13.906C139.021 13.5853 139.268 13.0913 139.268 12.424V12.281C139.268 11.8477 139.159 11.4923 138.943 11.215C138.735 10.929 138.384 10.6777 137.89 10.461C137.396 10.2443 136.724 10.0233 135.875 9.798C134.679 9.46867 133.695 9.096 132.924 8.68C132.161 8.25533 131.598 7.731 131.234 7.107C130.87 6.47433 130.688 5.68133 130.688 4.728V4.572C130.688 3.116 131.177 1.998 132.157 1.218C133.145 0.437999 134.601 0.0479997 136.525 0.0479997C137.721 0.0479997 138.748 0.156333 139.606 0.372999C140.464 0.589666 141.183 0.840999 141.764 1.127L142.063 4.13C141.413 3.78333 140.667 3.49733 139.827 3.272C138.995 3.038 138.085 2.921 137.097 2.921C136.36 2.921 135.775 2.99033 135.342 3.129C134.917 3.26767 134.609 3.47133 134.419 3.74C134.237 4.00867 134.146 4.33367 134.146 4.715V4.754C134.146 5.144 134.241 5.482 134.432 5.768C134.631 6.054 134.982 6.31833 135.485 6.561C135.987 6.795 136.702 7.03767 137.63 7.289C138.808 7.61833 139.77 7.97367 140.516 8.355C141.27 8.73633 141.829 9.23033 142.193 9.837C142.557 10.4437 142.739 11.2453 142.739 12.242V12.476C142.739 14.0793 142.214 15.2927 141.166 16.116C140.126 16.9307 138.548 17.338 136.434 17.338ZM154.731 17.377C152.443 17.377 150.757 16.818 149.674 15.7C148.59 14.5733 148.049 12.931 148.049 10.773V0.385998H151.468V10.851C151.468 12.0383 151.723 12.944 152.235 13.568C152.755 14.1833 153.587 14.491 154.731 14.491C155.866 14.491 156.689 14.1833 157.201 13.568C157.721 12.944 157.981 12.0383 157.981 10.851V0.385998H161.4V10.773C161.4 12.931 160.858 14.5733 159.775 15.7C158.691 16.818 157.01 17.377 154.731 17.377ZM174.821 17H171.402V1.023H174.821V17ZM179.527 3.233H166.67V0.385998H179.527V3.233ZM188.268 17H184.914V0.385998H188.268V17ZM196.12 17H185.915V14.153H196.12V17ZM195.821 9.941H186.864V7.172H195.821V9.941ZM196.016 3.207H185.902V0.385998H196.016V3.207ZM204.973 17H201.671L202.217 0.385998H207.131L210.251 10.955H210.42L213.527 0.385998H218.428L218.987 17H215.685L215.529 11.02L215.386 4.117H215.178L211.915 15.063H208.743L205.467 4.117H205.259L205.116 11.033L204.973 17ZM228.521 0.385998V17H225.102V0.385998H228.521Z" fill="white"/>
</svg>
