<svg width="120" height="17" fill="none" xmlns="http://www.w3.org/2000/svg"><path d="M4.259 17H.905V.386h3.354V17zm7.852 0H1.906v-2.847H12.11V17zm-.3-7.059H2.856V7.172h8.957v2.769zm.196-6.734H1.893V.386h10.114v2.821zM21.302.386V17H17.87V.386h3.432zM19.794 17v-2.873h8.697V17h-8.697zm17.354 0h-3.354V.386h3.354V17zM45 17H34.795v-2.847H45V17zm-.3-7.059h-8.956V7.172H44.7v2.769zm.196-6.734H34.782V.386h10.114v2.821zM53.852 17H50.55L51.096.386h4.914l3.12 10.569h.17L62.405.386h4.901L67.867 17h-3.303l-.156-5.98-.143-6.903h-.208l-3.263 10.946h-3.172L54.346 4.117h-.208l-.143 6.916L53.852 17zm23.211 0h-3.302L74.307.386h4.914l3.12 10.569h.17L85.616.386h4.901L91.078 17h-3.303l-.156-5.98-.143-6.903h-.208l-3.263 10.946h-3.172L77.557 4.117h-.208l-.143 6.916L77.063 17zM100.612.386V17h-3.419V.386h3.419zM119.895 17h-3.51l-.377-3.237c-.06-.58-.182-1.066-.364-1.456a1.889 1.889 0 00-.819-.884c-.364-.208-.866-.312-1.508-.312l-4.017-.013V8.472l4.225-.013c.945 0 1.621-.217 2.028-.65.416-.442.624-1.07.624-1.885v-.312c0-.806-.208-1.417-.624-1.833-.407-.425-1.092-.637-2.054-.637h-4.238V.386h4.719c1.95 0 3.372.394 4.264 1.183.902.789 1.352 1.911 1.352 3.367V5.3c0 1.092-.264 1.959-.793 2.6-.528.641-1.369 1.023-2.522 1.144v.468l-.949-.468c.988.07 1.751.277 2.288.624.546.347.945.828 1.196 1.443.252.607.442 1.36.572 2.262l.507 3.627zm-9.607 0h-3.354V.386h3.328v9.022l.026 1.261V17z" fill="#fff"/></svg>