<svg width="229" height="18" fill="none" xmlns="http://www.w3.org/2000/svg"><path d="M3.553 17H.25L.797.386H5.71l3.12 10.569H9L12.107.386h4.9L17.568 17h-3.302l-.156-5.98-.143-6.903h-.208l-3.263 10.946H7.323L4.047 4.117h-.208l-.143 6.916L3.553 17zm23.47 0H23.67V.386h3.354V17zm7.853 0H24.67v-2.847h10.205V17zm-.3-7.059H25.62V7.172h8.957v2.769zm.196-6.734H24.658V.386h10.114v2.821zM47.837 17h-3.419V1.023h3.419V17zm4.706-13.767H39.686V.386h12.857v2.847zm10.34 14.105a13.21 13.21 0 01-2.171-.169 14.936 14.936 0 01-1.82-.416 14.192 14.192 0 01-1.391-.52l-.3-3.224c.677.355 1.479.676 2.406.962.927.277 1.915.416 2.964.416 1.11 0 1.91-.16 2.405-.481.494-.32.74-.815.74-1.482v-.143c0-.433-.107-.789-.324-1.066-.208-.286-.56-.537-1.053-.754-.494-.217-1.166-.438-2.015-.663-1.196-.33-2.18-.702-2.951-1.118-.763-.425-1.326-.949-1.69-1.573-.364-.633-.546-1.426-.546-2.379v-.156c0-1.456.49-2.574 1.469-3.354.988-.78 2.444-1.17 4.368-1.17 1.196 0 2.223.108 3.08.325.859.217 1.578.468 2.159.754l.299 3.003a10.544 10.544 0 00-2.236-.858c-.832-.234-1.742-.351-2.73-.351-.737 0-1.322.07-1.755.208-.425.139-.732.342-.923.611-.182.269-.273.594-.273.975v.039c0 .39.095.728.286 1.014.2.286.55.55 1.053.793.503.234 1.218.477 2.145.728 1.179.33 2.14.685 2.886 1.066.754.381 1.313.875 1.677 1.482.364.607.546 1.408.546 2.405v.234c0 1.603-.524 2.817-1.573 3.64-1.04.815-2.617 1.222-4.732 1.222zm18.297.039c-2.288 0-3.974-.559-5.057-1.677-1.084-1.127-1.625-2.769-1.625-4.927V.386h3.419v10.465c0 1.187.255 2.093.767 2.717.52.615 1.352.923 2.496.923 1.135 0 1.958-.308 2.47-.923.52-.624.78-1.53.78-2.717V.386h3.419v10.387c0 2.158-.542 3.8-1.625 4.927-1.084 1.118-2.765 1.677-5.044 1.677zM107.537 17h-3.978l-5.096-7.358h-1.34V7.367h1.34l5.031-6.981h3.861l-6.123 8.333-.013-.78L107.537 17zm-10.101 0h-3.393V.386h3.393V17zm18.4-16.614V17h-3.419V.386h3.419zm20.598 16.952a13.17 13.17 0 01-2.171-.169 14.905 14.905 0 01-1.82-.416 14.125 14.125 0 01-1.391-.52l-.299-3.224c.676.355 1.477.676 2.405.962.927.277 1.915.416 2.964.416 1.109 0 1.911-.16 2.405-.481.494-.32.741-.815.741-1.482v-.143c0-.433-.109-.789-.325-1.066-.208-.286-.559-.537-1.053-.754-.494-.217-1.166-.438-2.015-.663-1.196-.33-2.18-.702-2.951-1.118-.763-.425-1.326-.949-1.69-1.573-.364-.633-.546-1.426-.546-2.379v-.156c0-1.456.489-2.574 1.469-3.354.988-.78 2.444-1.17 4.368-1.17 1.196 0 2.223.108 3.081.325.858.217 1.577.468 2.158.754l.299 3.003a10.558 10.558 0 00-2.236-.858c-.832-.234-1.742-.351-2.73-.351-.737 0-1.322.07-1.755.208-.425.139-.733.342-.923.611-.182.269-.273.594-.273.975v.039c0 .39.095.728.286 1.014.199.286.55.55 1.053.793.502.234 1.217.477 2.145.728 1.178.33 2.14.685 2.886 1.066.754.381 1.313.875 1.677 1.482.364.607.546 1.408.546 2.405v.234c0 1.603-.525 2.817-1.573 3.64-1.04.815-2.618 1.222-4.732 1.222zm18.297.039c-2.288 0-3.974-.559-5.057-1.677-1.084-1.127-1.625-2.769-1.625-4.927V.386h3.419v10.465c0 1.187.255 2.093.767 2.717.52.615 1.352.923 2.496.923 1.135 0 1.958-.308 2.47-.923.52-.624.78-1.53.78-2.717V.386h3.419v10.387c0 2.158-.542 3.8-1.625 4.927-1.084 1.118-2.765 1.677-5.044 1.677zm20.09-.377h-3.419V1.023h3.419V17zm4.706-13.767H166.67V.386h12.857v2.847zM188.268 17h-3.354V.386h3.354V17zm7.852 0h-10.205v-2.847h10.205V17zm-.299-7.059h-8.957V7.172h8.957v2.769zm.195-6.734h-10.114V.386h10.114v2.821zM204.973 17h-3.302l.546-16.614h4.914l3.12 10.569h.169L213.527.386h4.901L218.987 17h-3.302l-.156-5.98-.143-6.903h-.208l-3.263 10.946h-3.172l-3.276-10.946h-.208l-.143 6.916-.143 5.967zM228.521.386V17h-3.419V.386h3.419z" fill="#fff"/></svg>